<?xml version="1.0" encoding="UTF-8" standalone="no"?><!DOCTYPE svg PUBLIC "-//W3C//DTD SVG 1.1//EN" "http://www.w3.org/Graphics/SVG/1.1/DTD/svg11.dtd"><svg width="100%" height="100%" viewBox="0 0 6650 1059" version="1.1" xmlns="http://www.w3.org/2000/svg" xmlns:xlink="http://www.w3.org/1999/xlink" xml:space="preserve" xmlns:serif="http://www.serif.com/" style="fill-rule:evenodd;clip-rule:evenodd;stroke-linejoin:round;stroke-miterlimit:2;"><g><path d="M480.91,326.568l-142.036,0l-98.198,377.01l-90.307,-377.01l-146.42,0l147.735,465.563l47.345,0c-25.426,60.059 -58.305,85.923 -149.927,97.321l15.782,97.76c141.598,-7.891 219.63,-71.457 260.838,-195.081l155.188,-465.563Z" style="fill:#404040;fill-rule:nonzero;"/><path d="M1049.35,657.986l0,-182.368c0,-106.527 -64.881,-164.393 -203.41,-164.393c-51.729,0 -121.432,11.836 -181.491,34.632l32.002,92.06c46.469,-15.781 97.76,-24.549 127.57,-24.549c60.058,0 92.06,22.796 92.06,71.456l0,17.536l-62.688,0c-143.79,0 -226.645,57.428 -226.645,158.256c0,85.923 61.374,146.42 157.38,146.42c57.867,0 117.487,-20.165 153.434,-63.127c21.481,38.578 59.182,56.113 113.98,61.374l28.495,-91.184c-21.919,-7.891 -30.687,-21.042 -30.687,-56.113Zm-217.438,49.976c-39.455,0 -62.251,-21.043 -62.251,-56.99c0,-45.592 35.071,-69.703 112.227,-69.703l34.193,0l0,75.402c-17.097,32.879 -54.359,51.291 -84.169,51.291Z" style="fill:#404040;fill-rule:nonzero;"/><path d="M1225.87,792.131l138.529,0l0,-325.719c26.303,-33.317 52.168,-53.044 81.54,-53.044c34.194,0 44.715,19.727 44.715,76.717l0,302.046l138.529,0l0,-341.939c0,-88.115 -48.661,-138.967 -128.008,-138.967c-59.182,0 -103.458,22.795 -144.667,69.264l-9.644,-53.921l-120.994,0l0,465.563Z" style="fill:#404040;fill-rule:nonzero;"/><path d="M1775.01,792.131l138.53,0l0,-325.719c26.303,-33.317 52.167,-53.044 81.539,-53.044c34.194,0 44.715,19.727 44.715,76.717l0,302.046l138.529,0l0,-341.939c0,-88.115 -48.66,-138.967 -128.008,-138.967c-59.182,0 -103.458,22.795 -144.666,69.264l-9.645,-53.921l-120.994,0l0,465.563Z" style="fill:#404040;fill-rule:nonzero;"/><path d="M2510.91,82.827c-48.661,0 -82.416,33.755 -82.416,78.032c0,44.277 33.755,78.471 82.416,78.471c47.784,0 81.539,-34.194 81.539,-78.471c0,-44.277 -33.755,-78.032 -81.539,-78.032Zm83.731,243.741l-266.099,0l0,94.691l127.57,0l0,276.181l-131.953,0l0,94.691l388.846,0l0,-94.691l-118.364,0l0,-370.872Z" style="fill:#404040;fill-rule:nonzero;"/><path d="M2997.37,127.103l-138.529,14.467l0,650.561l138.529,0l0,-665.028Zm303.362,199.465l-145.105,0l-152.996,210.424l152.996,255.139l157.818,0l-165.709,-259.523l152.996,-206.04Z" style="fill:#404040;fill-rule:nonzero;"/><rect x="3459.27" y="3.041" width="50" height="1052.12" style="fill:#404040;fill-rule:nonzero;"/><path d="M3835.72,741.279c-54.359,0 -102.581,-19.727 -138.529,-49.976l-42.085,48.661c39.455,34.194 97.322,62.25 180.614,62.25c98.637,0 194.643,-39.016 194.643,-137.652c0,-86.362 -59.62,-117.926 -149.927,-142.475c-93.376,-25.426 -122.748,-39.893 -122.748,-81.101c0,-35.509 27.18,-60.497 99.952,-60.497c59.62,0 99.513,17.535 134.145,41.208l32.44,-49.976c-38.577,-28.494 -93.375,-50.852 -167.462,-50.852c-104.335,0 -175.354,48.222 -175.354,125.816c0,80.224 61.374,109.158 157.38,132.83c97.76,24.55 111.788,46.907 111.788,88.554c0,44.715 -43.838,73.21 -114.857,73.21Z" style="fill:#404040;fill-rule:nonzero;"/><path d="M4534.8,691.303l0,-221.384c0,-91.183 -57.867,-149.05 -172.723,-149.05c-44.715,0 -94.691,7.891 -150.804,28.933l19.289,55.675c47.783,-16.659 89.43,-23.673 120.117,-23.673c68.826,0 110.034,24.988 110.034,91.622l0,38.578l-67.949,0c-140.283,0 -216.562,52.606 -216.562,147.735c0,85.924 56.552,142.475 149.05,142.475c59.621,0 111.788,-21.919 144.667,-64.881c13.152,41.208 44.715,59.62 84.608,64.881l17.974,-51.729c-25.865,-7.891 -37.701,-21.919 -37.701,-59.182Zm-190.697,54.798c-60.059,0 -88.992,-29.81 -88.992,-87.238c0,-59.182 37.263,-96.883 138.968,-96.883l66.634,0l0,118.802c-27.618,41.208 -71.018,65.319 -116.61,65.319Z" style="fill:#404040;fill-rule:nonzero;"/><path d="M4718.33,792.131l73.649,0l0,-336.24c24.111,-35.947 70.141,-77.155 124.5,-77.155c69.703,0 78.909,38.139 78.909,132.391l0,281.004l73.649,0l0,-335.363c0,-85.047 -39.016,-135.899 -129.762,-135.899c-53.482,0 -114.856,26.303 -152.557,73.648l-5.699,-64.004l-62.689,0l0,461.618Z" style="fill:#404040;fill-rule:nonzero;"/><path d="M5519.55,135.433l0,239.796c-30.687,-35.948 -70.58,-54.36 -123.624,-54.36c-113.98,0 -181.053,102.143 -181.053,241.111c0,142.913 55.237,240.234 175.792,240.234c50.853,0 96.444,-21.919 131.077,-71.018l7.014,60.935l64.442,0l0,-647.492l-73.648,-9.206Zm-104.336,244.618c42.524,0 79.348,21.919 104.336,59.182l0,230.589c-24.988,37.701 -61.374,72.772 -113.542,72.772c-72.333,0 -110.911,-60.935 -110.911,-180.614c0,-121.871 42.962,-181.929 120.117,-181.929Z" style="fill:#404040;fill-rule:nonzero;"/><path d="M5816.18,587.406l310.376,0c0.876,-10.083 1.753,-24.549 1.753,-40.331c0,-140.283 -71.018,-226.206 -187.628,-226.206c-122.747,0 -201.656,101.267 -201.656,241.111c0,143.351 76.278,240.234 211.3,240.234c57.429,0 115.734,-20.604 158.695,-54.359l-34.632,-48.661c-40.77,27.618 -76.279,41.646 -123.186,41.646c-71.456,0 -131.077,-46.468 -135.022,-153.434Zm125.378,-206.04c69.264,0 113.979,50.414 115.733,149.05l-240.673,0c6.138,-101.705 56.114,-149.05 124.94,-149.05Z" style="fill:#404040;fill-rule:nonzero;"/><path d="M6581.45,320.431c-83.731,0 -130.2,43.4 -165.709,119.24l-13.59,-109.158l-128.008,0l0,56.552l71.895,0l0,348.515l-71.895,0l0,56.551l239.358,0l0,-56.551l-93.814,0l0,-195.519c30.687,-101.705 80.662,-151.681 152.119,-151.681l3.945,0l0,98.198l60.497,0l10.521,-156.065c-21.042,-6.137 -39.454,-10.082 -65.319,-10.082Z" style="fill:#404040;fill-rule:nonzero;"/></g></svg>