<?xml version="1.0" encoding="UTF-8" standalone="no"?><!DOCTYPE svg PUBLIC "-//W3C//DTD SVG 1.1//EN" "http://www.w3.org/Graphics/SVG/1.1/DTD/svg11.dtd"><svg width="100%" height="100%" viewBox="0 0 2738 1059" version="1.1" xmlns="http://www.w3.org/2000/svg" xmlns:xlink="http://www.w3.org/1999/xlink" xml:space="preserve" xmlns:serif="http://www.serif.com/" style="fill-rule:evenodd;clip-rule:evenodd;stroke-linejoin:round;stroke-miterlimit:2;"><g><path d="M477.371,326.605l-142.037,0l-98.198,377.01l-90.307,-377.01l-146.42,0l147.736,465.564l47.345,0c-25.426,60.058 -58.305,85.923 -149.927,97.321l15.782,97.759c141.598,-7.891 219.63,-71.456 260.838,-195.08l155.188,-465.564Z" style="fill:#404040;fill-rule:nonzero;"/><rect x="623.204" y="3.078" width="50" height="1052.12" style="fill:#404040;fill-rule:nonzero;"/><path d="M999.651,741.316c-54.359,0 -102.581,-19.727 -138.529,-49.976l-42.085,48.661c39.455,34.194 97.321,62.25 180.614,62.25c98.637,0 194.643,-39.016 194.643,-137.652c0,-86.362 -59.621,-117.925 -149.928,-142.475c-93.375,-25.426 -122.747,-39.893 -122.747,-81.101c0,-35.509 27.18,-60.497 99.951,-60.497c59.621,0 99.514,17.536 134.146,41.209l32.44,-49.976c-38.578,-28.495 -93.375,-50.853 -167.462,-50.853c-104.336,0 -175.354,48.222 -175.354,125.816c0,80.225 61.374,109.158 157.38,132.831c97.76,24.549 111.788,46.907 111.788,88.553c0,44.715 -43.839,73.21 -114.857,73.21Z" style="fill:#404040;fill-rule:nonzero;"/><path d="M1340.13,792.169l73.648,0l0,-336.241c24.111,-35.947 70.142,-77.155 124.501,-77.155c69.703,0 78.909,38.139 78.909,132.392l0,281.004l73.649,0l0,-335.364c0,-85.046 -39.016,-135.899 -129.762,-135.899c-53.483,0 -114.856,26.303 -152.557,73.649l-5.699,-64.004l-62.689,0l0,461.618Z" style="fill:#404040;fill-rule:nonzero;"/><path d="M2141.34,135.47l0,239.796c-30.687,-35.948 -70.58,-54.36 -123.625,-54.36c-113.979,0 -181.052,102.144 -181.052,241.111c0,142.913 55.236,240.234 175.792,240.234c50.852,0 96.444,-21.919 131.077,-71.018l7.014,60.936l64.442,0l0,-647.493l-73.648,-9.206Zm-104.336,244.618c42.524,0 79.348,21.919 104.336,59.182l0,230.59c-24.988,37.701 -61.374,72.771 -113.542,72.771c-72.333,0 -110.911,-60.935 -110.911,-180.614c0,-121.87 42.962,-181.929 120.117,-181.929Z" style="fill:#404040;fill-rule:nonzero;"/><path d="M2668.13,320.468c-83.731,0 -130.2,43.4 -165.709,119.24l-13.59,-109.157l-128.008,0l0,56.551l71.895,0l0,348.515l-71.895,0l0,56.552l239.358,0l0,-56.552l-93.814,0l0,-195.519c30.687,-101.705 80.662,-151.681 152.119,-151.681l3.945,0l0,98.198l60.497,0l10.521,-156.064c-21.042,-6.138 -39.454,-10.083 -65.319,-10.083Z" style="fill:#404040;fill-rule:nonzero;"/></g></svg>