<?xml version="1.0" encoding="UTF-8" standalone="no"?>
<!DOCTYPE svg PUBLIC "-//W3C//DTD SVG 1.1//EN" "http://www.w3.org/Graphics/SVG/1.1/DTD/svg11.dtd">
<svg width="100%" height="100%" viewBox="0 0 1195 1053" version="1.1" xmlns="http://www.w3.org/2000/svg" xmlns:xlink="http://www.w3.org/1999/xlink" xml:space="preserve" xmlns:serif="http://www.serif.com/" style="fill-rule:evenodd;clip-rule:evenodd;stroke-linejoin:round;stroke-miterlimit:2;">
    <g transform="matrix(1,0,0,1,0,-3)">
        <g>
            <path d="M477.371,326.605L335.334,326.605L237.136,703.615L146.829,326.605L0.409,326.605L148.145,792.169L195.49,792.169C170.064,852.227 137.185,878.092 45.563,889.49L61.345,987.249C202.943,979.358 280.975,915.793 322.183,792.169L477.371,326.605Z" style="fill:rgb(64,64,64);fill-rule:nonzero;"/>
            <rect x="623.204" y="3.078" width="50" height="1052.12" style="fill:rgb(64,64,64);"/>
            <path d="M999.651,741.316C945.292,741.316 897.07,721.589 861.122,691.34L819.037,740.001C858.492,774.195 916.358,802.251 999.651,802.251C1098.29,802.251 1194.29,763.235 1194.29,664.599C1194.29,578.237 1134.67,546.674 1044.37,522.124C950.991,496.698 921.619,482.231 921.619,441.023C921.619,405.514 948.799,380.526 1021.57,380.526C1081.19,380.526 1121.08,398.062 1155.72,421.735L1188.16,371.759C1149.58,343.264 1094.78,320.906 1020.69,320.906C916.358,320.906 845.34,369.128 845.34,446.722C845.34,526.947 906.714,555.88 1002.72,579.553C1100.48,604.102 1114.51,626.46 1114.51,668.106C1114.51,712.821 1070.67,741.316 999.651,741.316Z" style="fill:rgb(64,64,64);fill-rule:nonzero;"/>
        </g>
    </g>
</svg>
